<?xml version="1.0" encoding="utf-8"?>
<!-- Svg Vector Icons : http://www.onlinewebfonts.com/icon -->
<!DOCTYPE svg PUBLIC "-//W3C//DTD SVG 1.1//EN" "http://www.w3.org/Graphics/SVG/1.1/DTD/svg11.dtd">
<svg version="1.1" xmlns="http://www.w3.org/2000/svg" xmlns:xlink="http://www.w3.org/1999/xlink" x="0px" y="0px" viewBox="0 0 1000 1000" enable-background="new 0 0 1000 1000" xml:space="preserve">
<metadata> Svg Vector Icons : http://www.onlinewebfonts.com/icon </metadata>
<g><g transform="translate(0.000000,511.000000) scale(0.100000,-0.100000)"><path d="M4951.7,4980.4c-766.1-49.8-1334.9-333.2-1668.1-835c-438.6-658.8-430.9-1660.4,17.2-2464.8c250.9-446.2,666.5-942.3,1062.9-1264c103.4-84.3,116.8-101.5,95.8-130.2c-13.4-19.2-994-1103.1-2179.5-2409.3C640.7-3930.9,121.6-4515,108.2-4566.7c-13.4-51.7-11.5-82.3,13.4-134.1l32.6-67h137.9h139.8l2415,2189C4176.1-1376,5279.2-376.3,5300.3-357.2c36.4,32.6,53.6,23,543.9-289.2c633.9-404.1,879.1-566.9,1108.9-741.2c427.1-323.7,693.3-605.2,827.4-869.5c61.3-122.6,63.2-134.1,63.2-356.2c-1.9-270-28.7-375.4-159-630.1c-65.1-124.5-128.3-212.6-249-340.9c-484.5-507.5-1241-766.1-2386.3-815.8l-340.9-15.3l-55.5-61.3c-63.2-70.9-74.7-178.1-24.9-249c28.7-42.1,34.5-42.1,528.6-42.1c413.7,0,538.2,5.7,725.9,38.3c1152.9,197.3,1932.4,714.4,2252.2,1493.8c126.4,304.5,166.6,708.6,93.8,946.1c-97.7,327.5-335.2,649.2-727.8,986.3c-314.1,268.1-678,522.9-1442.1,1005.5C5844.2-163.7,5669.9-45,5669.9-37.3c0,15.3,3340.1,3050.8,3366.9,3058.5c19.2,7.7,185.8-254.7,270-421.3c159-316,206.8-563.1,174.3-902c-19.2-214.5-86.2-494.1-147.5-610.9C9161.2,746,8891.2,565.9,8443,489.3c-159-24.9-226-224.1-113-337.1c47.9-47.9,70.8-55.5,160.9-55.5c136,0,360,59.4,534.3,139.8c496,231.7,781.4,687.6,859.9,1373.2c59.4,532.4-61.3,978.7-413.7,1514.9l-120.7,185.8l195.4,181.9c279.6,260.5,373.5,459.6,350.5,739.3c-26.8,329.4-227.9,591.8-540.1,708.6c-206.8,78.5-524.8,42.1-704.8-74.7c-34.5-23-160.9-145.6-281.5-270L8150,4365.6l-243.2,114.9c-421.3,201.1-946.1,358.1-1442.1,430.9C6066.3,4970.8,5336.7,5003.4,4951.7,4980.4z M6221.4,4532.2c601.4-78.5,1026.5-195.4,1484.3-407.9c82.4-38.3,145.6-78.5,141.7-88.1c-1.9-9.6-699-783.3-1545.5-1717.9L4762.1,615.7l-107.3,88.1c-174.3,147.5-436.7,407.9-589.9,589.9c-356.2,423.3-584.1,871.4-666.5,1306.2c-42.1,229.8-28.7,660.7,28.7,877.1c159,599.4,595.6,957.6,1313.8,1072.5C4970.9,4585.9,5884.4,4574.4,6221.4,4532.2z M9272.3,4534.2c101.5-53.6,197.3-187.7,216.4-298.8c5.7-44.1,1.9-118.7-9.6-170.4c-19.2-76.6-47.9-114.9-206.9-268.1l-183.8-176.2l-59.4,70.9l-61.3,72.8l55.5,63.2c76.6,86.2,76.6,189.6,0,275.8c-47.9,53.6-68.9,63.2-143.6,63.2c-88.1,0-90-1.9-346.6-260.5c-247.1-249-258.5-262.4-258.5-337.1c0-99.6,70.9-191.5,162.8-208.8c67-11.5,124.5,9.6,197.3,74.7l44,40.2l46-55.5c24.9-32.6,46-63.2,47.9-68.9c0-5.7-118.8-118.7-262.4-249C5510.9,382.1,3356.4-1565.6,3333.4-1579c-15.3-9.6,139.8,166.6,344.7,392.6c206.8,226,1451.7,1599.2,2767.4,3052.8c1894.1,2091.4,2407.4,2646.8,2468.7,2675.5C9025.3,4591.6,9167,4587.8,9272.3,4534.2z"/></g></g>
</svg>